HIERARCHY
ROOT Hips
{
  OFFSET 5.72205e-005 65.662 3.42586
  CHANNELS 6 Xposition Yposition Zposition Zrotation Xrotation Yrotation
  JOINT Chest
  {
    OFFSET 0 8.7983 -4.7612
    CHANNELS 3 Zrotation Xrotation Yrotation
    JOINT Chest2
    {
      OFFSET 0 8.0291 0.4195
      CHANNELS 3 Zrotation Xrotation Yrotation
      JOINT Chest3
      {
        OFFSET 0 9.9351 -2.2114
        CHANNELS 3 Zrotation Xrotation Yrotation
        JOINT Neck
        {
          OFFSET 0 22.3885 -0.4656
          CHANNELS 3 Zrotation Xrotation Yrotation
          JOINT Head
          {
            OFFSET -0.0001 12.643 3.4389
            CHANNELS 3 Zrotation Xrotation Yrotation
            End Site
            {
              OFFSET 0.0001 17.6655 0.5274
            }
          }
        }
        JOINT LeftCollar
        {
          OFFSET 2.2603 21.606 7.4023
          CHANNELS 3 Zrotation Xrotation Yrotation
          JOINT LeftShoulder
          {
            OFFSET 13.5163 -1.1332 -5.0146
            CHANNELS 3 Zrotation Xrotation Yrotation
            JOINT LeftElbow
            {
              OFFSET -0.0995 -28.05 -0.2431
              CHANNELS 3 Zrotation Xrotation Yrotation
              JOINT LeftWrist
              {
                OFFSET 0.0679 -23.3996 -0.1402
                CHANNELS 3 Zrotation Xrotation Yrotation
                JOINT LeftFinger1
                {
                  OFFSET 0.7932 -9.069 2.5189
                  CHANNELS 3 Zrotation Xrotation Yrotation
                  JOINT LeftFinger11
                  {
                    OFFSET -0.8272 -3.3923 0.5977
                    CHANNELS 3 Zrotation Xrotation Yrotation
                    JOINT LeftFinger12
                    {
                      OFFSET -0.5649 -2.3158 0.4082
                      CHANNELS 3 Zrotation Xrotation Yrotation
                      End Site
                      {
                        OFFSET -0.4919 -1.6479 0.2673
                      }
                    }
                  }
                }
                JOINT LeftFinger2
                {
                  OFFSET 0.9159 -9.2044 0.2193
                  CHANNELS 3 Zrotation Xrotation Yrotation
                  JOINT LeftFinger21
                  {
                    OFFSET 0.0117 -4.1944 -0.0248
                    CHANNELS 3 Zrotation Xrotation Yrotation
                    JOINT LeftFinger22
                    {
                      OFFSET 0.0071 -2.3249 -0.0142
                      CHANNELS 3 Zrotation Xrotation Yrotation
                      End Site
                      {
                        OFFSET -0.1475 -2.0882 0.0028
                      }
                    }
                  }
                }
                JOINT LeftFinger3
                {
                  OFFSET 0.6113 -8.7231 -2.0637
                  CHANNELS 3 Zrotation Xrotation Yrotation
                  JOINT LeftFinger31
                  {
                    OFFSET -0.1927 -3.8059 -0.2383
                    CHANNELS 3 Zrotation Xrotation Yrotation
                    JOINT LeftFinger32
                    {
                      OFFSET -0.1091 -2.1688 -0.1362
                      CHANNELS 3 Zrotation Xrotation Yrotation
                      End Site
                      {
                        OFFSET -0.2358 -1.9176 -0.0906
                      }
                    }
                  }
                }
                JOINT LeftFinger4
                {
                  OFFSET -0.6151 -8.0947 -3.5641
                  CHANNELS 3 Zrotation Xrotation Yrotation
                  JOINT LeftFinger41
                  {
                    OFFSET -0.4882 -2.341 -0.6462
                    CHANNELS 3 Zrotation Xrotation Yrotation
                    JOINT LeftFinger42
                    {
                      OFFSET -0.3575 -1.7167 -0.4742
                      CHANNELS 3 Zrotation Xrotation Yrotation
                      End Site
                      {
                        OFFSET -0.4187 -1.5237 -0.3496
                      }
                    }
                  }
                }
                JOINT LeftFinger0
                {
                  OFFSET -1.42 -1.8761 1.4223
                  CHANNELS 3 Zrotation Xrotation Yrotation
                  JOINT LeftFinger01
                  {
                    OFFSET -1.1471 -3.4929 2.6334
                    CHANNELS 3 Zrotation Xrotation Yrotation
                    JOINT LeftFinger02
                    {
                      OFFSET -0.823 -2.3 1.6571
                      CHANNELS 3 Zrotation Xrotation Yrotation
                      End Site
                      {
                        OFFSET -0.5822 -1.6914 1.1582
                      }
                    }
                  }
                }
              }
            }
          }
        }
        JOINT RightCollar
        {
          OFFSET -2.2603 21.606 7.4023
          CHANNELS 3 Zrotation Xrotation Yrotation
          JOINT RightShoulder
          {
            OFFSET -13.5187 -1.1334 -5.0155
            CHANNELS 3 Zrotation Xrotation Yrotation
            JOINT RightElbow
            {
              OFFSET 0.0994 -28.0499 -0.2431
              CHANNELS 3 Zrotation Xrotation Yrotation
              JOINT RightWrist
              {
                OFFSET -0.0679 -23.3996 -0.1402
                CHANNELS 3 Zrotation Xrotation Yrotation
                JOINT RightFinger1
                {
                  OFFSET -0.7932 -9.0691 2.5189
                  CHANNELS 3 Zrotation Xrotation Yrotation
                  JOINT RightFinger11
                  {
                    OFFSET 0.8272 -3.3923 0.5977
                    CHANNELS 3 Zrotation Xrotation Yrotation
                    JOINT RightFinger12
                    {
                      OFFSET 0.565 -2.3158 0.4082
                      CHANNELS 3 Zrotation Xrotation Yrotation
                      End Site
                      {
                        OFFSET 0.4919 -1.6479 0.2673
                      }
                    }
                  }
                }
                JOINT RightFinger2
                {
                  OFFSET -0.916 -9.2044 0.2193
                  CHANNELS 3 Zrotation Xrotation Yrotation
                  JOINT RightFinger21
                  {
                    OFFSET -0.0117 -4.1944 -0.0248
                    CHANNELS 3 Zrotation Xrotation Yrotation
                    JOINT RightFinger22
                    {
                      OFFSET -0.0071 -2.3249 -0.0142
                      CHANNELS 3 Zrotation Xrotation Yrotation
                      End Site
                      {
                        OFFSET 0.1475 -2.0882 0.0028
                      }
                    }
                  }
                }
                JOINT RightFinger3
                {
                  OFFSET -0.6113 -8.7231 -2.0637
                  CHANNELS 3 Zrotation Xrotation Yrotation
                  JOINT RightFinger31
                  {
                    OFFSET 0.1927 -3.8059 -0.2383
                    CHANNELS 3 Zrotation Xrotation Yrotation
                    JOINT RightFinger32
                    {
                      OFFSET 0.1091 -2.1688 -0.1362
                      CHANNELS 3 Zrotation Xrotation Yrotation
                      End Site
                      {
                        OFFSET 0.2358 -1.9176 -0.0906
                      }
                    }
                  }
                }
                JOINT RightFinger4
                {
                  OFFSET 0.6151 -8.0947 -3.564
                  CHANNELS 3 Zrotation Xrotation Yrotation
                  JOINT RightFinger41
                  {
                    OFFSET 0.4882 -2.341 -0.6462
                    CHANNELS 3 Zrotation Xrotation Yrotation
                    JOINT RightFinger42
                    {
                      OFFSET 0.3574 -1.7166 -0.4742
                      CHANNELS 3 Zrotation Xrotation Yrotation
                      End Site
                      {
                        OFFSET 0.4187 -1.5237 -0.3496
                      }
                    }
                  }
                }
                JOINT RightFinger0
                {
                  OFFSET 1.4199 -1.8761 1.4221
                  CHANNELS 3 Zrotation Xrotation Yrotation
                  JOINT RightFinger01
                  {
                    OFFSET 1.1472 -3.4929 2.6336
                    CHANNELS 3 Zrotation Xrotation Yrotation
                    JOINT RightFinger02
                    {
                      OFFSET 0.8229 -2.3 1.6571
                      CHANNELS 3 Zrotation Xrotation Yrotation
                      End Site
                      {
                        OFFSET 0.5822 -1.6914 1.1582
                      }
                    }
                  }
                }
              }
            }
          }
        }
      }
    }
  }
  JOINT RightHip
  {
    OFFSET -9.412 3.9771 -0.7758
    CHANNELS 3 Zrotation Xrotation Yrotation
    JOINT RightKnee
    {
      OFFSET -0.7531 -40.938 0
      CHANNELS 3 Zrotation Xrotation Yrotation
      JOINT RightAnkle
      {
        OFFSET 0 -40.1986 0
        CHANNELS 3 Zrotation Xrotation Yrotation
        JOINT RightToe
        {
          OFFSET 0 -4.4182 9.239
          CHANNELS 3 Zrotation Xrotation Yrotation
          End Site
          {
            OFFSET 0 0 6.1981
          }
        }
      }
    }
  }
  JOINT LeftHip
  {
    OFFSET 9.4119 3.9773 -0.7758
    CHANNELS 3 Zrotation Xrotation Yrotation
    JOINT LeftKnee
    {
      OFFSET 0.7532 -40.9383 0
      CHANNELS 3 Zrotation Xrotation Yrotation
      JOINT LeftAnkle
      {
        OFFSET 0 -40.1986 0
        CHANNELS 3 Zrotation Xrotation Yrotation
        JOINT LeftToe
        {
          OFFSET 0 -4.4182 9.239
          CHANNELS 3 Zrotation Xrotation Yrotation
          End Site
          {
            OFFSET 0 0 6.1981
          }
        }
      }
    }
  }
}
MOTION
Frames:	6
Frame Time:	0.0333333
-0.78379 10.8227 18.3378 5.995e-016 47.3461 180 -0.337866 14.5658 -0.0111295 -0.709027 29.1315 0.0738148 -0.709024 29.1314 0.0738137 -10.1762 -32.2083 -5.66797 -11.138 -11.399 -26.8642 10.9352 9.26649 -33.1326 34.7744 -22.6334 13.529 -6.56959 1.26754 -1.08388 -9.44452 -13.5112 5.11801 4.24518e-007 -1.72257e-006 -3.33434e-008 -4.24518e-007 1.72257e-006 3.33434e-008 -7.95139e-016 -2.62396e-014 3.18055e-015 4.24518e-007 -1.72257e-006 -3.33434e-008 -0.0128262 0.00232952 9.10584e-005 8.82781e-032 -1.59028e-015 3.18055e-015 4.24518e-007 -1.72257e-006 -3.33434e-008 -0.0160387 0.00299802 0.000858567 -3.97569e-016 0 -3.18055e-015 4.24518e-007 -1.72257e-006 -3.33434e-008 -0.0125943 0.00312972 0.00283589 3.97569e-016 0 3.18055e-015 4.24518e-007 -1.72257e-006 -3.33434e-008 -4.24518e-007 1.72257e-006 3.33434e-008 -7.95139e-016 -2.62396e-014 3.18055e-015 -11.2381 9.81548 28.259 -33.8231 -23.9412 -9.42452 6.1305 1.17577 1.24297 9.50996 -13.9514 -6.01566 -1.59028e-015 7.95139e-016 6.36111e-015 -0 0 6.36111e-015 4.41391e-032 -7.95139e-016 3.18055e-015 -1.59028e-015 7.95139e-016 6.36111e-015 0.0129447 0.00231565 -8.56492e-005 7.95139e-016 -7.95139e-016 -0 -1.59028e-015 7.95139e-016 6.36111e-015 0.0163793 0.00304753 -0.000882226 -1.59028e-015 7.95139e-016 -0 -1.59028e-015 7.95139e-016 6.36111e-015 0.0145712 0.00367927 -0.00326057 -7.95139e-016 1.59028e-015 3.18055e-015 -1.59028e-015 7.95139e-016 6.36111e-015 -0 0 6.36111e-015 4.41391e-032 -7.95139e-016 3.18055e-015 -48.0368 -25.3026 -81.6194 -8.26923 52.1223 60.9784 -15.2162 25.9786 -32.8125 -7.79634e-007 6.38757e-007 2.90251e-007 48.0199 -25.3045 81.6015 8.24499 52.121 -60.9608 15.2079 25.9765 32.804 -1.55919e-006 2.99527e-006 5.80616e-007 
-0.783783 10.7668 18.4632 4.84375e-016 46.9109 180 -0.338057 14.5891 -0.0107054 -0.709675 29.1782 0.0749564 -0.709673 29.1781 0.0749555 -10.0871 -31.7399 -5.56265 -10.821 -11.2359 -26.7347 11.0432 9.02907 -33.1771 34.7744 -22.6334 13.529 -6.56967 1.26758 -1.08388 -9.18309 -13.8599 5.31997 4.24428e-007 2.42122e-006 -3.39227e-008 1.89322e-006 4.08086e-006 -7.78349e-006 3.97569e-016 7.95139e-016 6.36111e-015 4.24428e-007 2.42122e-006 -3.39227e-008 -0.0127923 0.0023252 9.28638e-005 -4.24437e-007 2.21834e-006 3.39056e-008 4.24428e-007 2.42122e-006 -3.39227e-008 -0.0160062 0.0029877 0.000857932 1.30921e-007 4.90642e-007 -4.72193e-006 4.24428e-007 2.42122e-006 -3.39227e-008 -0.0126141 0.00313506 0.00283029 -9.79872e-007 -5.61913e-007 4.78969e-006 4.24428e-007 2.42122e-006 -3.39227e-008 1.89322e-006 4.08086e-006 -7.78349e-006 3.97569e-016 7.95139e-016 6.36111e-015 -11.3266 9.59961 28.3159 -33.8231 -23.9412 -9.42455 6.13048 1.17576 1.24299 9.24538 -14.3123 -6.2594 3.97569e-015 -2.78299e-014 9.54166e-015 8.44918e-007 1.4651e-006 -2.77787e-008 3.35048e-007 1.26853e-006 2.95257e-006 3.97569e-015 -2.78299e-014 9.54166e-015 0.0129194 0.00231377 -8.48196e-005 1.35534e-006 -1.37107e-006 -3.00808e-006 3.97569e-015 -2.78299e-014 9.54166e-015 0.0163025 0.00303323 -0.000861692 8.44953e-007 1.46515e-006 -2.77358e-008 3.97569e-015 -2.78299e-014 9.54166e-015 0.0145945 0.00368687 -0.00327047 -2.32992e-008 3.31547e-006 4.66506e-006 3.97569e-015 -2.78299e-014 9.54166e-015 8.44918e-007 1.4651e-006 -2.77787e-008 3.35048e-007 1.26853e-006 2.95257e-006 -48.0371 -25.6634 -81.7727 -8.10151 51.8934 60.855 -15.0539 26.1076 -32.9722 -7.79609e-007 6.60989e-007 2.90298e-007 48.0197 -25.6653 81.7542 8.07664 51.8918 -60.8367 15.0454 26.1055 32.9635 2.33871e-006 -5.68003e-007 -8.71057e-007 
-0.783776 10.7109 18.5891 3.71115e-016 46.4758 180 -0.338247 14.6125 -0.0102807 -0.710325 29.2249 0.0761 -0.710321 29.2247 0.0760986 -9.99932 -31.2707 -5.45853 -10.5043 -11.072 -26.6061 11.151 8.79161 -33.2212 34.7744 -22.6334 13.529 -6.56958 1.26755 -1.08387 -8.92006 -14.2077 5.52389 1.21511e-006 1.44846e-006 2.82276e-006 -3.97569e-016 -3.18055e-015 -0 -1.59028e-015 -3.18055e-015 -3.18055e-015 1.21511e-006 1.44846e-006 2.82276e-006 -0.0128363 0.00233036 9.00607e-005 -1.98785e-015 3.18055e-015 -3.18055e-015 1.21511e-006 1.44846e-006 2.82276e-006 -0.0160606 0.00299346 0.000860443 -0 -2.54444e-014 -0 1.21511e-006 1.44846e-006 2.82276e-006 -0.0125341 0.00310674 0.00281209 -1.19271e-015 -2.38542e-015 -0 1.21511e-006 1.44846e-006 2.82276e-006 -3.97569e-016 -3.18055e-015 -0 -1.59028e-015 -3.18055e-015 -3.18055e-015 -11.4149 9.38367 28.3724 -33.8231 -23.9412 -9.42454 6.13045 1.17576 1.24299 8.97875 -14.6721 -6.50527 0 0 -0 1.76556e-031 -1.59028e-015 6.36111e-015 3.97569e-016 7.95139e-016 3.18055e-015 0 0 -0 0.0129764 0.00232222 -8.86069e-005 1.98785e-015 0 3.18055e-015 0 0 -0 0.016342 0.00303714 -0.000882228 1.19271e-015 -7.95139e-016 3.18055e-015 0 0 -0 0.0146345 0.00368842 -0.00326868 3.97569e-016 -1.59028e-015 -3.18055e-015 0 0 -0 1.76556e-031 -1.59028e-015 6.36111e-015 3.97569e-016 7.95139e-016 3.18055e-015 -48.0387 -26.0242 -81.9266 -7.93523 51.6645 60.7332 -14.8912 26.2362 -33.1323 3.18055e-015 3.18055e-015 -3.18055e-015 48.0207 -26.0261 81.9075 7.90985 51.6628 -60.7144 14.8825 26.2341 33.1236 -6.12524e-006 -6.51021e-006 -1.29661e-005 
-0.783768 10.6552 18.7154 2.59661e-016 46.0408 180 -0.338438 14.6358 -0.00985598 -0.710975 29.2715 0.0772448 -0.710972 29.2714 0.0772439 -9.9128 -30.8004 -5.35559 -10.1878 -10.9072 -26.4784 11.2585 8.55409 -33.2647 34.7744 -22.6334 13.529 -6.56964 1.26755 -1.08387 -8.65536 -14.5545 5.72975 -6.73662e-006 -9.6489e-007 -2.36513e-006 4.24243e-007 -7.39831e-007 -3.50979e-008 2.51779e-007 -2.70855e-007 7.61348e-006 -6.73662e-006 -9.6489e-007 -2.36513e-006 -0.012796 0.00232608 8.6887e-005 -2.96976e-006 -2.8327e-006 2.45565e-007 -6.73662e-006 -9.6489e-007 -2.36513e-006 -0.0160574 0.00299619 0.00085968 1.15163e-006 -1.1131e-006 4.61663e-006 -6.73662e-006 -9.6489e-007 -2.36513e-006 -0.0126125 0.00313279 0.00284397 8.48504e-007 -3.58385e-006 -7.01526e-008 -6.73662e-006 -9.6489e-007 -2.36513e-006 4.24243e-007 -7.39831e-007 -3.50979e-008 2.51779e-007 -2.70855e-007 7.61348e-006 -11.503 9.16766 28.4286 -33.8231 -23.9412 -9.42455 6.13048 1.17578 1.24298 8.71015 -15.0308 -6.75322 2.38542e-015 1.45136e-006 -0 1.19192e-006 3.20652e-006 2.92195e-006 -1.20019e-008 -8.86755e-008 4.66462e-006 2.38542e-015 1.45136e-006 -0 0.0129254 0.00231946 -8.35408e-005 1.17954e-006 -2.90684e-007 7.58662e-006 2.38542e-015 1.45136e-006 -0 0.0163551 0.00304401 -0.000865493 -1.87448e-006 -2.53457e-006 3.24904e-006 2.38542e-015 1.45136e-006 -0 0.0145452 0.00367649 -0.00324794 -7.95139e-016 -1.9404e-006 -6.36111e-015 2.38542e-015 1.45136e-006 -0 1.19192e-006 3.20652e-006 2.92195e-006 -1.20019e-008 -8.86755e-008 4.66462e-006 -48.0411 -26.3852 -82.0808 -7.7708 51.4353 60.613 -14.728 26.3643 -33.2932 -3.11822e-006 2.36701e-006 1.16142e-006 48.0228 -26.3869 82.0613 7.74461 51.4336 -60.5936 14.7191 26.3623 33.2842 -1.84225e-006 -4.42387e-006 -1.18865e-005 
-0.78376 10.5997 18.8422 1.49959e-016 45.6058 180 -0.338628 14.6592 -0.00943096 -0.711626 29.3182 0.0783907 -0.711623 29.3181 0.0783894 -9.82754 -30.3293 -5.2538 -9.8716 -10.7416 -26.3516 11.3658 8.3165 -33.3078 34.7744 -22.6334 13.529 -6.56961 1.26755 -1.08386 -8.38894 -14.9004 5.93757 -3.07975e-007 1.73668e-006 -4.68616e-006 1.19271e-015 -1.59028e-015 6.36111e-015 -1.27245e-006 4.66204e-006 1.0708e-007 -3.07975e-007 1.73668e-006 -4.68616e-006 -0.0128124 0.00232293 9.56913e-005 -1.2273e-006 2.71168e-006 -2.82005e-006 -3.07975e-007 1.73668e-006 -4.68616e-006 -0.0160441 0.00298947 0.00086411 -1.60603e-006 7.46173e-006 -5.71152e-006 -3.07975e-007 1.73668e-006 -4.68616e-006 -0.0125845 0.00311989 0.00284082 -4.85751e-006 3.81097e-006 -9.01553e-006 -3.07975e-007 1.73668e-006 -4.68616e-006 1.19271e-015 -1.59028e-015 6.36111e-015 -1.27245e-006 4.66204e-006 1.0708e-007 -11.5907 8.95159 28.4844 -33.8231 -23.9412 -9.42453 6.13052 1.17578 1.24299 8.43946 -15.3882 -7.00334 6.09384e-006 5.00988e-007 -3.40986e-006 -1.76738e-007 -1.25464e-006 -1.47607e-006 -1.51209e-006 -5.66684e-006 1.53938e-006 6.09384e-006 5.00988e-007 -3.40986e-006 0.012952 0.00231604 -7.6109e-005 -8.44442e-007 -3.40287e-006 3.16186e-008 6.09384e-006 5.00988e-007 -3.40986e-006 0.0162678 0.00302965 -0.000864085 -1.6889e-006 -4.87165e-006 6.32194e-008 6.09384e-006 5.00988e-007 -3.40986e-006 0.0145538 0.00366923 -0.00325431 -8.44447e-007 -9.85241e-007 3.16054e-008 6.09384e-006 5.00988e-007 -3.40986e-006 -1.76738e-007 -1.25464e-006 -1.47607e-006 -1.51209e-006 -5.66684e-006 1.53938e-006 -48.0449 -26.746 -82.2356 -7.60747 51.2062 60.4943 -14.5644 26.4921 -33.4545 -1.55906e-006 -1.61142e-006 5.80729e-007 48.0259 -26.7478 82.2154 7.58099 51.2043 -60.4745 14.5553 26.49 33.4454 2.33847e-006 -4.55105e-007 -8.7124e-007 
-0.783753 10.5443 18.9694 4.19684e-017 45.1708 180 -0.338819 14.6825 -0.00900579 -0.712278 29.3649 0.0795378 -0.712275 29.3648 0.0795365 -9.74353 -29.8574 -5.15316 -9.55566 -10.5752 -26.2257 11.4728 8.07883 -33.3505 34.7744 -22.6334 13.529 -6.56955 1.26756 -1.08388 -8.12089 -15.2452 6.14734 -8.48104e-007 2.95077e-006 7.25889e-008 3.97569e-016 -7.95139e-016 -3.18055e-015 -4.24052e-007 -5.67639e-007 3.62944e-008 -8.48104e-007 2.95077e-006 7.25889e-008 -0.0128034 0.00232462 8.95417e-005 -3.13046e-007 2.22395e-006 -4.68555e-006 -8.48104e-007 2.95077e-006 7.25889e-008 -0.0160312 0.00299929 0.00085998 -3.97569e-016 -7.95139e-016 -1.27222e-014 -8.48104e-007 2.95077e-006 7.25889e-008 -0.012595 0.00312639 0.00283341 -4.24061e-007 1.71775e-006 3.62729e-008 -8.48104e-007 2.95077e-006 7.25889e-008 3.97569e-016 -7.95139e-016 -3.18055e-015 -4.24052e-007 -5.67639e-007 3.62944e-008 -11.6782 8.73541 28.5398 -33.8232 -23.9412 -9.42454 6.13048 1.1758 1.24298 8.1668 -15.7445 -7.25556 1.02405e-006 3.04079e-006 1.44301e-006 8.44244e-007 5.33744e-006 -3.29649e-008 -3.36442e-010 -8.70518e-008 4.6641e-006 1.02405e-006 3.04079e-006 1.44301e-006 0.0129437 0.00231543 -8.38733e-005 3.18055e-015 3.40527e-006 1.59028e-014 1.02405e-006 3.04079e-006 1.44301e-006 0.0163241 0.00303266 -0.000880114 -2.25867e-010 1.85061e-006 4.66408e-006 1.02405e-006 3.04079e-006 1.44301e-006 0.0145687 0.0036778 -0.00326138 -2.22639e-014 1.93296e-006 3.18055e-015 1.02405e-006 3.04079e-006 1.44301e-006 8.44244e-007 5.33744e-006 -3.29649e-008 -3.36442e-010 -8.70518e-008 4.6641e-006 -48.0497 -27.107 -82.3909 -7.44593 50.9769 60.3773 -14.4002 26.6195 -33.6165 5.59066e-007 3.0363e-007 2.265e-006 48.0301 -27.1087 82.3701 7.41871 50.9747 -60.3568 14.391 26.6174 33.6072 9.99207e-007 -2.2645e-006 -2.84728e-006 
